<svg xmlns="http://www.w3.org/2000/svg" viewBox="0 0 64 64">
  <!-- Background circle -->
  <circle cx="32" cy="32" r="30" fill="#0a0500" stroke="#ff4d00" stroke-width="2"/>
  <!-- Main flame body -->
  <path d="M32 8 C28 16 20 18 22 28 C23 34 20 36 20 36 C20 36 16 30 18 22 C10 28 10 38 14 44 C18 50 24 54 32 56 C40 54 46 50 50 44 C54 38 54 28 46 22 C48 30 44 36 44 36 C44 36 41 34 42 28 C44 18 36 16 32 8Z" fill="url(#fire1)" opacity="0.95"/>
  <!-- Inner brighter flame -->
  <path d="M32 18 C30 24 25 26 26 32 C27 37 25 40 25 40 C25 40 30 38 32 34 C34 38 39 40 39 40 C39 40 37 37 38 32 C39 26 34 24 32 18Z" fill="url(#fire2)" opacity="0.9"/>
  <!-- Core highlight -->
  <ellipse cx="32" cy="38" rx="5" ry="7" fill="url(#firecore)" opacity="0.8"/>
  <defs>
    <radialGradient id="fire1" cx="50%" cy="80%" r="60%">
      <stop offset="0%" stop-color="#ffee00"/>
      <stop offset="40%" stop-color="#ff6600"/>
      <stop offset="100%" stop-color="#cc1100"/>
    </radialGradient>
    <radialGradient id="fire2" cx="50%" cy="70%" r="50%">
      <stop offset="0%" stop-color="#ffffff"/>
      <stop offset="30%" stop-color="#ffdd00"/>
      <stop offset="100%" stop-color="#ff4400"/>
    </radialGradient>
    <radialGradient id="firecore" cx="50%" cy="50%" r="50%">
      <stop offset="0%" stop-color="#ffffff" stop-opacity="0.9"/>
      <stop offset="100%" stop-color="#ffcc00" stop-opacity="0"/>
    </radialGradient>
  </defs>
</svg>
